<svg xmlns="http://www.w3.org/2000/svg" viewBox="0 0 440 440" fill="none" stroke="white" stroke-width=".55"><defs><path id="ring" d="M133.0,0.0L138.2,3.6L142.8,7.5L146.3,11.5L148.4,15.6L148.7,19.6L147.3,23.3L144.3,26.7L139.9,29.7L134.4,32.3L128.5,34.4L122.5,36.3L117.0,38.0L112.4,39.8L109.1,41.9L107.2,44.4L106.7,47.5L107.6,51.3L109.6,55.8L112.3,61.0L115.2,66.5L117.9,72.2L119.9,77.9L120.9,83.1L120.7,87.7L119.0,91.3L115.9,93.9L111.6,95.3L106.3,95.7L100.3,95.2L94.0,94.0L87.9,92.7L82.3,91.4L77.4,90.7L73.5,90.8L70.6,92.0L68.7,94.5L67.5,98.3L67.0,103.2L66.7,108.9L66.5,115.2L66.0,121.5L64.9,127.4L63.2,132.5L60.7,136.3L57.4,138.6L53.5,139.3L49.0,138.3L44.2,136.0L39.3,132.6L34.4,128.5L29.8,124.2L25.6,120.3L21.7,117.2L18.3,115.4L15.1,115.0L12.2,116.2L9.4,118.9L6.4,122.8L3.3,127.7L0.0,133.0L-3.6,138.2L-7.5,142.8L-11.5,146.3L-15.6,148.4L-19.6,148.7L-23.3,147.3L-26.7,144.3L-29.7,139.9L-32.3,134.4L-34.4,128.5L-36.3,122.5L-38.0,117.0L-39.8,112.4L-41.9,109.1L-44.4,107.2L-47.5,106.7L-51.3,107.6L-55.8,109.6L-61.0,112.3L-66.5,115.2L-72.2,117.9L-77.9,119.9L-83.1,120.9L-87.7,120.7L-91.3,119.0L-93.9,115.9L-95.3,111.6L-95.7,106.3L-95.2,100.3L-94.0,94.0L-92.7,87.9L-91.4,82.3L-90.7,77.4L-90.8,73.5L-92.0,70.6L-94.5,68.7L-98.3,67.5L-103.2,67.0L-108.9,66.7L-115.2,66.5L-121.5,66.0L-127.4,64.9L-132.5,63.2L-136.3,60.7L-138.6,57.4L-139.3,53.5L-138.3,49.0L-136.0,44.2L-132.6,39.3L-128.5,34.4L-124.2,29.8L-120.3,25.6L-117.2,21.7L-115.4,18.3L-115.0,15.1L-116.2,12.2L-118.9,9.4L-122.8,6.4L-127.7,3.3L-133.0,0.0L-138.2,-3.6L-142.8,-7.5L-146.3,-11.5L-148.4,-15.6L-148.7,-19.6L-147.3,-23.3L-144.3,-26.7L-139.9,-29.7L-134.4,-32.3L-128.5,-34.4L-122.5,-36.3L-117.0,-38.0L-112.4,-39.8L-109.1,-41.9L-107.2,-44.4L-106.7,-47.5L-107.6,-51.3L-109.6,-55.8L-112.3,-61.0L-115.2,-66.5L-117.9,-72.2L-119.9,-77.9L-120.9,-83.1L-120.7,-87.7L-119.0,-91.3L-115.9,-93.9L-111.6,-95.3L-106.3,-95.7L-100.3,-95.2L-94.0,-94.0L-87.9,-92.7L-82.3,-91.4L-77.4,-90.7L-73.5,-90.8L-70.6,-92.0L-68.7,-94.5L-67.5,-98.3L-67.0,-103.2L-66.7,-108.9L-66.5,-115.2L-66.0,-121.5L-64.9,-127.4L-63.2,-132.5L-60.7,-136.3L-57.4,-138.6L-53.5,-139.3L-49.0,-138.3L-44.2,-136.0L-39.3,-132.6L-34.4,-128.5L-29.8,-124.2L-25.6,-120.3L-21.7,-117.2L-18.3,-115.4L-15.1,-115.0L-12.2,-116.2L-9.4,-118.9L-6.4,-122.8L-3.3,-127.7L-0.0,-133.0L3.6,-138.2L7.5,-142.8L11.5,-146.3L15.6,-148.4L19.6,-148.7L23.3,-147.3L26.7,-144.3L29.7,-139.9L32.3,-134.4L34.4,-128.5L36.3,-122.5L38.0,-117.0L39.8,-112.4L41.9,-109.1L44.4,-107.2L47.5,-106.7L51.3,-107.6L55.8,-109.6L61.0,-112.3L66.5,-115.2L72.2,-117.9L77.9,-119.9L83.1,-120.9L87.7,-120.7L91.3,-119.0L93.9,-115.9L95.3,-111.6L95.7,-106.3L95.2,-100.3L94.0,-94.0L92.7,-87.9L91.4,-82.3L90.7,-77.4L90.8,-73.5L92.0,-70.6L94.5,-68.7L98.3,-67.5L103.2,-67.0L108.9,-66.7L115.2,-66.5L121.5,-66.0L127.4,-64.9L132.5,-63.2L136.3,-60.7L138.6,-57.4L139.3,-53.5L138.3,-49.0L136.0,-44.2L132.6,-39.3L128.5,-34.4L124.2,-29.8L120.3,-25.6L117.2,-21.7L115.4,-18.3L115.0,-15.1L116.2,-12.2L118.9,-9.4L122.8,-6.4L127.7,-3.3L133.0,-0.0Z"/></defs><g transform="translate(220 220)"><use href="#ring" transform="rotate(0.00) scale(1.0000)"/><use href="#ring" transform="rotate(-0.95) scale(1.0169)"/><use href="#ring" transform="rotate(-1.91) scale(1.0338)"/><use href="#ring" transform="rotate(-2.86) scale(1.0508)"/><use href="#ring" transform="rotate(-3.82) scale(1.0677)"/><use href="#ring" transform="rotate(-4.77) scale(1.0846)"/><use href="#ring" transform="rotate(-5.73) scale(1.1015)"/><use href="#ring" transform="rotate(-6.68) scale(1.1184)"/><use href="#ring" transform="rotate(-7.64) scale(1.1353)"/><use href="#ring" transform="rotate(-8.59) scale(1.1523)"/><use href="#ring" transform="rotate(-9.55) scale(1.1692)"/><use href="#ring" transform="rotate(-10.50) scale(1.1861)"/><use href="#ring" transform="rotate(-11.46) scale(1.2030)"/><use href="#ring" transform="rotate(-12.41) scale(1.2199)"/><use href="#ring" transform="rotate(-13.37) scale(1.2368)"/><use href="#ring" transform="rotate(-14.32) scale(1.2538)"/><use href="#ring" transform="rotate(-15.28) scale(1.2707)"/><use href="#ring" transform="rotate(-16.23) scale(1.2876)"/><use href="#ring" transform="rotate(-17.19) scale(1.3045)"/><use href="#ring" transform="rotate(-18.14) scale(1.3214)"/><use href="#ring" transform="rotate(-19.10) scale(1.3383)"/><use href="#ring" transform="rotate(-20.05) scale(1.3553)"/><use href="#ring" transform="rotate(-21.01) scale(1.3722)"/><use href="#ring" transform="rotate(-21.96) scale(1.3891)"/><circle r="105" stroke-width=".8"/><circle r="101" stroke-width=".4"/></g></svg>
